<?xml version="1.0" encoding="UTF-8" standalone="no"?>
<!-- Generator: Adobe Illustrator 19.2.0, SVG Export Plug-In . SVG Version: 6.00 Build 0)  -->

<svg
   xmlns:dc="http://purl.org/dc/elements/1.1/"
   xmlns:cc="http://creativecommons.org/ns#"
   xmlns:rdf="http://www.w3.org/1999/02/22-rdf-syntax-ns#"
   xmlns:svg="http://www.w3.org/2000/svg"
   xmlns="http://www.w3.org/2000/svg"
   xmlns:sodipodi="http://sodipodi.sourceforge.net/DTD/sodipodi-0.dtd"
   xmlns:inkscape="http://www.inkscape.org/namespaces/inkscape"
   version="1.1"
   id="Layer_1"
   x="0px"
   y="0px"
   viewBox="0 0 72.1 72"
   style="enable-background:new 0 0 72.1 72;"
   xml:space="preserve"
   inkscape:version="0.91 r13725"
   sodipodi:docname="TemperatureSensorModule_brd_updated.svg"><metadata
     id="metadata333"><rdf:RDF><cc:Work
         rdf:about=""><dc:format>image/svg+xml</dc:format><dc:type
           rdf:resource="http://purl.org/dc/dcmitype/StillImage" /><dc:title>/Users/TylerMaschino/Documents/MicroModulAdmin/EagleBoardDesigns/TemperatureSensorModule/TemperatureSensorModule.brd
	</dc:title></cc:Work></rdf:RDF></metadata><defs
     id="defs331" /><sodipodi:namedview
     pagecolor="#ffffff"
     bordercolor="#666666"
     borderopacity="1"
     objecttolerance="10"
     gridtolerance="10"
     guidetolerance="10"
     inkscape:pageopacity="0"
     inkscape:pageshadow="2"
     inkscape:window-width="1245"
     inkscape:window-height="731"
     id="namedview329"
     showgrid="false"
     inkscape:zoom="21.32"
     inkscape:cx="36.049999"
     inkscape:cy="38.843939"
     inkscape:window-x="0"
     inkscape:window-y="0"
     inkscape:window-maximized="0"
     inkscape:current-layer="Layer_1" /><style
     type="text/css"
     id="style3">
	.st0{fill:#0A0A0A;}
	.st1{fill:none;stroke:#C8C8C8;stroke-width:0.1524;stroke-linecap:round;}
	.st2{fill:none;stroke:#000000;stroke-width:5.000000e-03;stroke-linecap:round;}
	.st3{fill:#C8C8C8;}
	.st4{fill:none;stroke:#C8C8C8;stroke-width:0.2032;}
	.st5{fill:none;stroke:#C8C8C8;stroke-width:0.2032;stroke-linecap:round;}
	.st6{fill:#404040;}
	.st7{fill:#2A2A29;}
	.st8{fill:#474747;}
	.st9{fill:#595959;}
	.st10{fill:#373737;}
</style><polyline
     id="board"
     class="st0"
     points="0,0 72.1,0 72.1,72 0,72 0,0 " /><title
     id="title6">/Users/TylerMaschino/Documents/MicroModulAdmin/EagleBoardDesigns/TemperatureSensorModule/TemperatureSensorModule.brd
	</title><desc
     id="desc8">generated by eagle2svg 1.4,</desc><g
     id="surface0"><path
       class="st1"
       d="M12.5,5.6v2.1 M12.5,7.7l1.1,1.1 M13.5,8.8l1.1-1.1 M14.6,7.7V5.6 M17.9,6.1l-0.5-0.5 M17.4,5.6h-1.1    M16.3,5.6l-0.5,0.5 M15.8,6.1v2.1 M15.8,8.2l0.5,0.5 M16.3,8.8h1.1 M17.4,8.8l0.5-0.5 M21.2,6.1l-0.5-0.5 M20.7,5.6h-1.1    M19.6,5.6l-0.5,0.5 M19.1,6.1v2.1 M19.1,8.2l0.5,0.5 M19.6,8.8h1.1 M20.7,8.8l0.5-0.5"
       id="path11" /><path
       class="st1"
       d="M50.8,5.6v2.1 M50.8,7.7l1.1,1.1 M51.8,8.8l1.1-1.1 M52.9,7.7V5.6 M56.2,6.1l-0.5-0.5 M55.7,5.6h-1.1    M54.6,5.6l-0.5,0.5 M54.1,6.1v2.1 M54.1,8.2l0.5,0.5 M54.6,8.8h1.1 M55.7,8.8l0.5-0.5 M59.5,6.1L59,5.6 M59,5.6h-1.1 M57.9,5.6   l-0.5,0.5 M57.4,6.1v2.1 M57.4,8.2l0.5,0.5 M57.9,8.8H59 M59,8.8l0.5-0.5"
       id="path13" /><path
       class="st1"
       d="M52.9,63.7l-0.5-0.5 M52.3,63.2h-1.1 M51.3,63.2l-0.5,0.5 M50.8,63.7v2.1 M50.8,65.8l0.5,0.5 M51.3,66.4h1.1    M52.3,66.4l0.5-0.5 M52.9,65.8v-1.1 M52.9,64.8h-1.1 M54.1,66.4v-3.2 M54.1,63.2l2.1,3.2 M56.2,66.4v-3.2 M57.4,63.2v3.2    M57.4,66.4H59 M59,66.4l0.5-0.5 M59.5,65.8v-2.1 M59.5,63.7L59,63.2 M59,63.2h-1.6"
       id="path15" /><path
       class="st1"
       d="M14.6,63.7L14,63.2 M14,63.2H13 M13,63.2l-0.5,0.5 M12.5,63.7v2.1 M12.5,65.8l0.5,0.5 M13,66.4H14 M14,66.4   l0.5-0.5 M14.6,65.8v-1.1 M14.6,64.8h-1.1 M15.8,66.4v-3.2 M15.8,63.2l2.1,3.2 M17.9,66.4v-3.2 M19.1,63.2v3.2 M19.1,66.4h1.6    M20.7,66.4l0.5-0.5 M21.2,65.8v-2.1 M21.2,63.7l-0.5-0.5 M20.7,63.2h-1.6"
       id="path17" /><path
       class="st1"
       d="M12.5,16v-3.2 M12.5,12.8H14 M14,12.8l0.5,0.5 M14.6,13.3v1.1 M14.6,14.4L14,14.9 M14,14.9h-1.6 M16.8,16v-3.2    M15.8,12.8h2.1 M19.1,15.4v-2.1 M19.1,13.3l0.5-0.5 M19.6,12.8h1.1 M20.7,12.8l0.5,0.5 M21.2,13.3v2.1 M21.2,15.4L20.7,16    M20.7,16h-1.1 M19.6,16l-0.5-0.5 M19.1,15.4l2.1-2.1"
       id="path19" /><path
       class="st1"
       d="M50.8,16v-3.2 M50.8,12.8h1.6 M52.3,12.8l0.5,0.5 M52.9,13.3v1.1 M52.9,14.4l-0.5,0.5 M52.3,14.9h-1.6    M55.1,16v-3.2 M54.1,12.8h2.1 M57.4,15.4v-2.1 M57.4,13.3l0.5-0.5 M57.9,12.8H59 M59,12.8l0.5,0.5 M59.5,13.3v2.1 M59.5,15.4   L59,16 M59,16h-1.1 M57.9,16l-0.5-0.5 M57.4,15.4l2.1-2.1"
       id="path21" /><path
       class="st1"
       d="M12.5,23.2V20 M12.5,20H14 M14,20l0.5,0.5 M14.6,20.5v1.1 M14.6,21.6L14,22.1 M14,22.1h-1.6 M16.8,23.2V20    M15.8,20h2.1 M19.1,21l1.1-1.1 M20.1,20v3.2 M19.1,23.2h2.1"
       id="path23" /><path
       class="st1"
       d="M50.8,23.2V20 M50.8,20h1.6 M52.3,20l0.5,0.5 M52.9,20.5v1.1 M52.9,21.6l-0.5,0.5 M52.3,22.1h-1.6 M55.1,23.2   V20 M54.1,20h2.1 M57.4,21l1.1-1.1 M58.4,20v3.2 M57.4,23.2h2.1"
       id="path25" /><path
       class="st1"
       d="M12.5,30.4v-3.2 M12.5,27.2H14 M14,27.2l0.5,0.5 M14.6,27.7v1.1 M14.6,28.8L14,29.3 M14,29.3h-1.6 M16.8,30.4   v-3.2 M15.8,27.2h2.1 M21.2,30.4h-2.1 M19.1,30.4l2.1-2.1 M21.2,28.2v-0.5 M21.2,27.7l-0.5-0.5 M20.7,27.2h-1.1 M19.6,27.2   l-0.5,0.5"
       id="path27" /><path
       class="st1"
       d="M50.8,30.4v-3.2 M50.8,27.2h1.6 M52.3,27.2l0.5,0.5 M52.9,27.7v1.1 M52.9,28.8l-0.5,0.5 M52.3,29.3h-1.6    M55.1,30.4v-3.2 M54.1,27.2h2.1 M59.5,30.4h-2.1 M57.4,30.4l2.1-2.1 M59.5,28.2v-0.5 M59.5,27.7L59,27.2 M59,27.2h-1.1 M57.9,27.2   l-0.5,0.5"
       id="path29" /><path
       class="st1"
       d="M12.5,44.8v-3.2 M12.5,41.6H14 M14,41.6l0.5,0.5 M14.6,42.1v1.1 M14.6,43.2L14,43.7 M14,43.7h-1.6 M16.8,44.8   v-3.2 M15.8,41.6h2.1 M20.7,44.8v-3.2 M20.7,41.6l-1.6,1.6 M19.1,43.2h2.1"
       id="path31" /><path
       class="st1"
       d="M50.8,44.8v-3.2 M50.8,41.6h1.6 M52.3,41.6l0.5,0.5 M52.9,42.1v1.1 M52.9,43.2l-0.5,0.5 M52.3,43.7h-1.6    M55.1,44.8v-3.2 M54.1,41.6h2.1 M59,44.8v-3.2 M59,41.6l-1.6,1.6 M57.4,43.2h2.1"
       id="path33" /><path
       class="st1"
       d="M12.5,52v-3.2 M12.5,48.8H14 M14,48.8l0.5,0.5 M14.6,49.3v1.1 M14.6,50.4L14,50.9 M14,50.9h-1.6 M16.8,52v-3.2    M15.8,48.8h2.1 M21.2,48.8h-2.1 M19.1,48.8v1.6 M19.1,50.4l1.1-0.5 M20.1,49.8h0.5 M20.7,49.8l0.5,0.5 M21.2,50.4v1.1 M21.2,51.4   L20.7,52 M20.7,52h-1.1 M19.6,52l-0.5-0.5"
       id="path35" /><path
       class="st1"
       d="M50.8,52v-3.2 M50.8,48.8h1.6 M52.3,48.8l0.5,0.5 M52.9,49.3v1.1 M52.9,50.4l-0.5,0.5 M52.3,50.9h-1.6    M55.1,52v-3.2 M54.1,48.8h2.1 M59.5,48.8h-2.1 M57.4,48.8v1.6 M57.4,50.4l1.1-0.5 M58.4,49.8H59 M59,49.8l0.5,0.5 M59.5,50.4v1.1    M59.5,51.4L59,52 M59,52h-1.1 M57.9,52l-0.5-0.5"
       id="path37" /><path
       class="st1"
       d="M12.5,59.2V56 M12.5,56H14 M14,56l0.5,0.5 M14.6,56.5v1.1 M14.6,57.6L14,58.1 M14,58.1h-1.6 M16.8,59.2V56    M15.8,56h2.1 M21.2,56l-1.1,0.5 M20.1,56.5l-1.1,1.1 M19.1,57.6v1.1 M19.1,58.6l0.5,0.5 M19.6,59.2h1.1 M20.7,59.2l0.5-0.5    M21.2,58.6v-0.5 M21.2,58.1l-0.5-0.5 M20.7,57.6h-1.6"
       id="path39" /><path
       class="st1"
       d="M50.8,59.2V56 M50.8,56h1.6 M52.3,56l0.5,0.5 M52.9,56.5v1.1 M52.9,57.6l-0.5,0.5 M52.3,58.1h-1.6 M55.1,59.2   V56 M54.1,56h2.1 M59.5,56l-1.1,0.5 M58.4,56.5l-1.1,1.1 M57.4,57.6v1.1 M57.4,58.6l0.5,0.5 M57.9,59.2H59 M59,59.2l0.5-0.5    M59.5,58.6v-0.5 M59.5,58.1L59,57.6 M59,57.6h-1.6"
       id="path41" /><path
       class="st1"
       d="M14,34.4H13 M13,34.4l-0.5,0.5 M12.5,34.9V37 M12.5,37l0.5,0.5 M13,37.6H14 M14,37.6l0.5-0.5 M14.6,37v-2.1    M14.6,34.9L14,34.4 M15.8,34.4V37 M15.8,37l0.5,0.5 M16.3,37.6h1.1 M17.4,37.6l0.5-0.5 M17.9,37v-2.6 M20.1,37.6v-3.2 M19.1,34.4   h2.1"
       id="path43" /><path
       class="st1"
       d="M52.3,34.4h-1.1 M51.3,34.4l-0.5,0.5 M50.8,34.9V37 M50.8,37l0.5,0.5 M51.3,37.6h1.1 M52.3,37.6l0.5-0.5    M52.9,37v-2.1 M52.9,34.9l-0.5-0.5 M54.1,34.4V37 M54.1,37l0.5,0.5 M54.6,37.6h1.1 M55.7,37.6l0.5-0.5 M56.2,37v-2.6 M58.4,37.6   v-3.2 M57.4,34.4h2.1"
       id="path45" /><line
       class="st2"
       x1="0"
       y1="72"
       x2="72.1"
       y2="72"
       id="line47" /><line
       class="st2"
       x1="72.1"
       y1="72"
       x2="72.1"
       y2="0"
       id="line49" /><line
       class="st2"
       x1="72.1"
       y1="0"
       x2="0"
       y2="0"
       id="line51" /><line
       class="st2"
       x1="0"
       y1="0"
       x2="0"
       y2="72"
       id="line53" /><g
       id="g55"><title
         id="title57">PART HEADER1</title><rect
         x="6.5"
         y="49.7"
         class="st3"
         width="1.4"
         height="1.4"
         id="rect59" /><rect
         x="6.5"
         y="42.5"
         class="st3"
         width="1.4"
         height="1.4"
         id="rect61" /><rect
         x="6.5"
         y="35.3"
         class="st3"
         width="1.4"
         height="1.4"
         id="rect63" /><rect
         x="6.5"
         y="28.1"
         class="st3"
         width="1.4"
         height="1.4"
         id="rect65" /><rect
         x="6.5"
         y="20.9"
         class="st3"
         width="1.4"
         height="1.4"
         id="rect67" /><rect
         x="6.5"
         y="13.7"
         class="st3"
         width="1.4"
         height="1.4"
         id="rect69" /><rect
         x="6.5"
         y="6.5"
         class="st3"
         width="1.4"
         height="1.4"
         id="rect71" /><rect
         x="6.5"
         y="56.9"
         class="st3"
         width="1.4"
         height="1.4"
         id="rect73" /><rect
         x="6.5"
         y="64.1"
         class="st3"
         width="1.4"
         height="1.4"
         id="rect75" /></g><g
       id="g77"><title
         id="title79">PART HEADER2</title><rect
         x="64.1"
         y="49.7"
         class="st3"
         width="1.4"
         height="1.4"
         id="rect81" /><rect
         x="64.1"
         y="42.5"
         class="st3"
         width="1.4"
         height="1.4"
         id="rect83" /><rect
         x="64.1"
         y="35.3"
         class="st3"
         width="1.4"
         height="1.4"
         id="rect85" /><rect
         x="64.1"
         y="28.1"
         class="st3"
         width="1.4"
         height="1.4"
         id="rect87" /><rect
         x="64.1"
         y="20.9"
         class="st3"
         width="1.4"
         height="1.4"
         id="rect89" /><rect
         x="64.1"
         y="13.7"
         class="st3"
         width="1.4"
         height="1.4"
         id="rect91" /><rect
         x="64.1"
         y="6.5"
         class="st3"
         width="1.4"
         height="1.4"
         id="rect93" /><rect
         x="64.1"
         y="56.9"
         class="st3"
         width="1.4"
         height="1.4"
         id="rect95" /><rect
         x="64.1"
         y="64.1"
         class="st3"
         width="1.4"
         height="1.4"
         id="rect97" /></g><g
       id="g99"><title
         id="title101">PART U$1</title></g><g
       id="g103"><title
         id="title105">PART U1</title><path
         class="st4"
         d="M43.2,33.7c-1.2-4-5.5-6.2-9.5-5c-0.9,0.3-1.7,0.7-2.5,1.3"
         id="path107" /><path
         class="st4"
         d="M31.3,41.9c3.3,2.6,8,2,10.6-1.3c0.6-0.7,1-1.6,1.3-2.5"
         id="path109" /><line
         class="st5"
         x1="31.3"
         y1="30"
         x2="31.3"
         y2="41.9"
         id="line111" /><line
         class="st5"
         x1="35.3"
         y1="28.4"
         x2="35.3"
         y2="29.6"
         id="line113" /><line
         class="st5"
         x1="35.3"
         y1="35.2"
         x2="35.3"
         y2="36.8"
         id="line115" /><line
         class="st5"
         x1="35.3"
         y1="42.4"
         x2="35.3"
         y2="43.5"
         id="line117" /></g></g><g
     id="g119"><g
       id="icon_2_"><rect
         x="3.6"
         y="3.6"
         class="st6"
         width="7.2"
         height="64.8"
         id="rect122" /><rect
         x="5.8"
         y="63.4"
         width="2.8"
         height="2.8"
         id="rect124" /><polygon
         class="st7"
         points="4.8,67.2 5.8,66.2 5.8,63.4 4.8,62.4   "
         id="polygon126" /><polygon
         class="st8"
         points="4.8,62.4 5.8,63.4 8.6,63.4 9.6,62.4   "
         id="polygon128" /><polygon
         class="st9"
         points="9.6,62.4 8.6,63.4 8.6,66.2 9.6,67.2   "
         id="polygon130" /><polygon
         class="st10"
         points="9.6,67.2 8.6,66.2 5.8,66.2 4.8,67.2   "
         id="polygon132" /><rect
         x="5.8"
         y="56.2"
         width="2.8"
         height="2.8"
         id="rect134" /><polygon
         class="st7"
         points="4.8,60 5.8,59 5.8,56.2 4.8,55.2   "
         id="polygon136" /><polygon
         class="st8"
         points="4.8,55.2 5.8,56.2 8.6,56.2 9.6,55.2   "
         id="polygon138" /><polygon
         class="st9"
         points="9.6,55.2 8.6,56.2 8.6,59 9.6,60   "
         id="polygon140" /><polygon
         class="st10"
         points="9.6,60 8.6,59 5.8,59 4.8,60   "
         id="polygon142" /><rect
         x="5.8"
         y="49"
         width="2.8"
         height="2.8"
         id="rect144" /><polygon
         class="st7"
         points="4.8,52.8 5.8,51.8 5.8,49 4.8,48   "
         id="polygon146" /><polygon
         class="st8"
         points="4.8,48 5.8,49 8.6,49 9.6,48   "
         id="polygon148" /><polygon
         class="st9"
         points="9.6,48 8.6,49 8.6,51.8 9.6,52.8   "
         id="polygon150" /><polygon
         class="st10"
         points="9.6,52.8 8.6,51.8 5.8,51.8 4.8,52.8   "
         id="polygon152" /><rect
         x="5.8"
         y="41.8"
         width="2.8"
         height="2.8"
         id="rect154" /><polygon
         class="st7"
         points="4.8,45.6 5.8,44.6 5.8,41.8 4.8,40.8   "
         id="polygon156" /><polygon
         class="st8"
         points="4.8,40.8 5.8,41.8 8.6,41.8 9.6,40.8   "
         id="polygon158" /><polygon
         class="st9"
         points="9.6,40.8 8.6,41.8 8.6,44.6 9.6,45.6   "
         id="polygon160" /><polygon
         class="st10"
         points="9.6,45.6 8.6,44.6 5.8,44.6 4.8,45.6   "
         id="polygon162" /><rect
         x="5.8"
         y="34.6"
         width="2.8"
         height="2.8"
         id="rect164" /><polygon
         class="st7"
         points="4.8,38.4 5.8,37.4 5.8,34.6 4.8,33.6   "
         id="polygon166" /><polygon
         class="st8"
         points="4.8,33.6 5.8,34.6 8.6,34.6 9.6,33.6   "
         id="polygon168" /><polygon
         class="st9"
         points="9.6,33.6 8.6,34.6 8.6,37.4 9.6,38.4   "
         id="polygon170" /><polygon
         class="st10"
         points="9.6,38.4 8.6,37.4 5.8,37.4 4.8,38.4   "
         id="polygon172" /><rect
         x="5.8"
         y="27.4"
         width="2.8"
         height="2.8"
         id="rect174" /><polygon
         class="st7"
         points="4.8,31.2 5.8,30.2 5.8,27.4 4.8,26.4   "
         id="polygon176" /><polygon
         class="st8"
         points="4.8,26.4 5.8,27.4 8.6,27.4 9.6,26.4   "
         id="polygon178" /><polygon
         class="st9"
         points="9.6,26.4 8.6,27.4 8.6,30.2 9.6,31.2   "
         id="polygon180" /><polygon
         class="st10"
         points="9.6,31.2 8.6,30.2 5.8,30.2 4.8,31.2   "
         id="polygon182" /><rect
         x="5.8"
         y="27.4"
         width="2.8"
         height="2.8"
         id="rect184" /><polygon
         class="st7"
         points="4.8,31.2 5.8,30.2 5.8,27.4 4.8,26.4   "
         id="polygon186" /><polygon
         class="st8"
         points="4.8,26.4 5.8,27.4 8.6,27.4 9.6,26.4   "
         id="polygon188" /><polygon
         class="st9"
         points="9.6,26.4 8.6,27.4 8.6,30.2 9.6,31.2   "
         id="polygon190" /><polygon
         class="st10"
         points="9.6,31.2 8.6,30.2 5.8,30.2 4.8,31.2   "
         id="polygon192" /><rect
         x="5.8"
         y="20.2"
         width="2.8"
         height="2.8"
         id="rect194" /><polygon
         class="st7"
         points="4.8,24 5.8,23 5.8,20.2 4.8,19.2   "
         id="polygon196" /><polygon
         class="st8"
         points="4.8,19.2 5.8,20.2 8.6,20.2 9.6,19.2   "
         id="polygon198" /><polygon
         class="st9"
         points="9.6,19.2 8.6,20.2 8.6,23 9.6,24   "
         id="polygon200" /><polygon
         class="st10"
         points="9.6,24 8.6,23 5.8,23 4.8,24   "
         id="polygon202" /><rect
         x="5.8"
         y="13"
         width="2.8"
         height="2.8"
         id="rect204" /><polygon
         class="st7"
         points="4.8,16.8 5.8,15.8 5.8,13 4.8,12   "
         id="polygon206" /><polygon
         class="st8"
         points="4.8,12 5.8,13 8.6,13 9.6,12   "
         id="polygon208" /><polygon
         class="st9"
         points="9.6,12 8.6,13 8.6,15.8 9.6,16.8   "
         id="polygon210" /><polygon
         class="st10"
         points="9.6,16.8 8.6,15.8 5.8,15.8 4.8,16.8   "
         id="polygon212" /><rect
         x="5.8"
         y="5.8"
         width="2.8"
         height="2.8"
         id="rect214" /><polygon
         class="st7"
         points="4.8,9.6 5.8,8.6 5.8,5.8 4.8,4.8   "
         id="polygon216" /><polygon
         class="st8"
         points="4.8,4.8 5.8,5.8 8.6,5.8 9.6,4.8   "
         id="polygon218" /><polygon
         class="st9"
         points="9.6,4.8 8.6,5.8 8.6,8.6 9.6,9.6   "
         id="polygon220" /><polygon
         class="st10"
         points="9.6,9.6 8.6,8.6 5.8,8.6 4.8,9.6   "
         id="polygon222" /></g></g><g
     id="g224"><g
       id="icon_1_"><rect
         x="61.2"
         y="3.6"
         class="st6"
         width="7.2"
         height="64.8"
         id="rect227" /><rect
         x="63.4"
         y="63.4"
         width="2.8"
         height="2.8"
         id="rect229" /><polygon
         class="st7"
         points="62.4,67.2 63.4,66.2 63.4,63.4 62.4,62.4   "
         id="polygon231" /><polygon
         class="st8"
         points="62.4,62.4 63.4,63.4 66.2,63.4 67.2,62.4   "
         id="polygon233" /><polygon
         class="st9"
         points="67.2,62.4 66.2,63.4 66.2,66.2 67.2,67.2   "
         id="polygon235" /><polygon
         class="st10"
         points="67.2,67.2 66.2,66.2 63.4,66.2 62.4,67.2   "
         id="polygon237" /><rect
         x="63.4"
         y="56.2"
         width="2.8"
         height="2.8"
         id="rect239" /><polygon
         class="st7"
         points="62.4,60 63.4,59 63.4,56.2 62.4,55.2   "
         id="polygon241" /><polygon
         class="st8"
         points="62.4,55.2 63.4,56.2 66.2,56.2 67.2,55.2   "
         id="polygon243" /><polygon
         class="st9"
         points="67.2,55.2 66.2,56.2 66.2,59 67.2,60   "
         id="polygon245" /><polygon
         class="st10"
         points="67.2,60 66.2,59 63.4,59 62.4,60   "
         id="polygon247" /><rect
         x="63.4"
         y="49"
         width="2.8"
         height="2.8"
         id="rect249" /><polygon
         class="st7"
         points="62.4,52.8 63.4,51.8 63.4,49 62.4,48   "
         id="polygon251" /><polygon
         class="st8"
         points="62.4,48 63.4,49 66.2,49 67.2,48   "
         id="polygon253" /><polygon
         class="st9"
         points="67.2,48 66.2,49 66.2,51.8 67.2,52.8   "
         id="polygon255" /><polygon
         class="st10"
         points="67.2,52.8 66.2,51.8 63.4,51.8 62.4,52.8   "
         id="polygon257" /><rect
         x="63.4"
         y="41.8"
         width="2.8"
         height="2.8"
         id="rect259" /><polygon
         class="st7"
         points="62.4,45.6 63.4,44.6 63.4,41.8 62.4,40.8   "
         id="polygon261" /><polygon
         class="st8"
         points="62.4,40.8 63.4,41.8 66.2,41.8 67.2,40.8   "
         id="polygon263" /><polygon
         class="st9"
         points="67.2,40.8 66.2,41.8 66.2,44.6 67.2,45.6   "
         id="polygon265" /><polygon
         class="st10"
         points="67.2,45.6 66.2,44.6 63.4,44.6 62.4,45.6   "
         id="polygon267" /><rect
         x="63.4"
         y="34.6"
         width="2.8"
         height="2.8"
         id="rect269" /><polygon
         class="st7"
         points="62.4,38.4 63.4,37.4 63.4,34.6 62.4,33.6   "
         id="polygon271" /><polygon
         class="st8"
         points="62.4,33.6 63.4,34.6 66.2,34.6 67.2,33.6   "
         id="polygon273" /><polygon
         class="st9"
         points="67.2,33.6 66.2,34.6 66.2,37.4 67.2,38.4   "
         id="polygon275" /><polygon
         class="st10"
         points="67.2,38.4 66.2,37.4 63.4,37.4 62.4,38.4   "
         id="polygon277" /><rect
         x="63.4"
         y="27.4"
         width="2.8"
         height="2.8"
         id="rect279" /><polygon
         class="st7"
         points="62.4,31.2 63.4,30.2 63.4,27.4 62.4,26.4   "
         id="polygon281" /><polygon
         class="st8"
         points="62.4,26.4 63.4,27.4 66.2,27.4 67.2,26.4   "
         id="polygon283" /><polygon
         class="st9"
         points="67.2,26.4 66.2,27.4 66.2,30.2 67.2,31.2   "
         id="polygon285" /><polygon
         class="st10"
         points="67.2,31.2 66.2,30.2 63.4,30.2 62.4,31.2   "
         id="polygon287" /><rect
         x="63.4"
         y="27.4"
         width="2.8"
         height="2.8"
         id="rect289" /><polygon
         class="st7"
         points="62.4,31.2 63.4,30.2 63.4,27.4 62.4,26.4   "
         id="polygon291" /><polygon
         class="st8"
         points="62.4,26.4 63.4,27.4 66.2,27.4 67.2,26.4   "
         id="polygon293" /><polygon
         class="st9"
         points="67.2,26.4 66.2,27.4 66.2,30.2 67.2,31.2   "
         id="polygon295" /><polygon
         class="st10"
         points="67.2,31.2 66.2,30.2 63.4,30.2 62.4,31.2   "
         id="polygon297" /><rect
         x="63.4"
         y="20.2"
         width="2.8"
         height="2.8"
         id="rect299" /><polygon
         class="st7"
         points="62.4,24 63.4,23 63.4,20.2 62.4,19.2   "
         id="polygon301" /><polygon
         class="st8"
         points="62.4,19.2 63.4,20.2 66.2,20.2 67.2,19.2   "
         id="polygon303" /><polygon
         class="st9"
         points="67.2,19.2 66.2,20.2 66.2,23 67.2,24   "
         id="polygon305" /><polygon
         class="st10"
         points="67.2,24 66.2,23 63.4,23 62.4,24   "
         id="polygon307" /><rect
         x="63.4"
         y="13"
         width="2.8"
         height="2.8"
         id="rect309" /><polygon
         class="st7"
         points="62.4,16.8 63.4,15.8 63.4,13 62.4,12   "
         id="polygon311" /><polygon
         class="st8"
         points="62.4,12 63.4,13 66.2,13 67.2,12   "
         id="polygon313" /><polygon
         class="st9"
         points="67.2,12 66.2,13 66.2,15.8 67.2,16.8   "
         id="polygon315" /><polygon
         class="st10"
         points="67.2,16.8 66.2,15.8 63.4,15.8 62.4,16.8   "
         id="polygon317" /><rect
         x="63.4"
         y="5.8"
         width="2.8"
         height="2.8"
         id="rect319" /><polygon
         class="st7"
         points="62.4,9.6 63.4,8.6 63.4,5.8 62.4,4.8   "
         id="polygon321" /><polygon
         class="st8"
         points="62.4,4.8 63.4,5.8 66.2,5.8 67.2,4.8   "
         id="polygon323" /><polygon
         class="st9"
         points="67.2,4.8 66.2,5.8 66.2,8.6 67.2,9.6   "
         id="polygon325" /><polygon
         class="st10"
         points="67.2,9.6 66.2,8.6 63.4,8.6 62.4,9.6   "
         id="polygon327" /></g></g><g
     inkscape:groupmode="layer"
     id="layer1"
     inkscape:label="additions"
     style="display:inline" /><path
     inkscape:connector-curvature="0"
     id="path4478"
     d="m 35.840133,34.414373 a 6.1957047,4.3793377 0 0 0 -4.252639,1.197219 l 0,6.361927 a 6.1957047,4.3793377 0 0 0 4.252639,1.200249 6.1957047,4.3793377 0 0 0 6.195415,-4.379698 6.1957047,4.3793377 0 0 0 -6.195415,-4.379697 z"
     style="fill:#1a1a1a;fill-opacity:1" /><rect
     style="fill:#1a1a1a;fill-opacity:1"
     id="rect4486"
     width="10.466067"
     height="10.50695"
     x="31.602617"
     y="28.66394" /><path
     style="fill:#333333;fill-opacity:1"
     d="M 35.583984 33.167969 A 6.1957047 4.3793377 0 0 0 35.839844 33.173828 A 6.1957047 4.3793377 0 0 0 42.035156 28.794922 A 6.1957047 4.3793377 0 0 0 35.839844 24.414062 A 6.1957047 4.3793377 0 0 0 35.583984 24.423828 L 35.583984 33.167969 z "
     id="path4500" /><path
     style="fill:#4d4d4d;fill-opacity:1"
     d="M 31.603516 25.601562 A 6.1957047 4.3793377 0 0 0 31.587891 25.611328 L 31.587891 31.972656 A 6.1957047 4.3793377 0 0 0 31.603516 31.982422 L 31.603516 25.601562 z "
     id="path4498" /><path
     style="fill:#3c3c3c;fill-opacity:1"
     d="m 31.603516,25.601562 0,6.38086 a 6.1957047,4.3793377 0 0 0 3.980468,1.185547 l 0,-8.744141 a 6.1957047,4.3793377 0 0 0 -3.980468,1.177734 z"
     id="path4480"
     inkscape:connector-curvature="0" /></svg>